<?xml version="1.0" standalone="no"?>
<!DOCTYPE svg PUBLIC "-//W3C//DTD SVG 20010904//EN"
 "http://www.w3.org/TR/2001/REC-SVG-20010904/DTD/svg10.dtd">
<svg version="1.0" xmlns="http://www.w3.org/2000/svg" width="512.000000pt" height="512.000000pt" viewBox="0 0 512.000000 512.000000" preserveAspectRatio="xMidYMid meet">

<defs>
	<radialGradient id="grad1" cx="50%" cy="45%" r="60%" fx="50%" fy="50%">
		<stop offset="20%" stop-color="#1E90FF" />
		<stop offset="80%" stop-color="#000f1e" />
    </radialGradient>
</defs>

<g transform="translate(0.000000,512.000000) scale(0.100000,-0.100000)" fill="url(#grad1)" stroke="none">

	<path id="fullgear" d="M2054 5110 c-33 -13 -72 -66 -78 -107 -3 -21 -15 -126 -27 -233 -11 -107 -21 -195 -22 -196 -1 -1 -47 -19 -102 -39 -55 -21 -131 -53 -168 -72 -37 -18 -73 -30 -80 -26 -7 4 -80 62 -162 129 -215 174 -235 184 -309 149 -42 -20 -692 -672 -705 -708 -27 -72 -19 -88 152 -300 68 -83 126 -157 130 -164 4 -6 -11 -48 -32 -93 -22 -45 -54 -122 -72 -171 -17 -49 -35 -89 -38 -89 -45 0 -454 -51 -468 -58 -10 -6 -29 -22 -43 -37 l-25 -27 0 -508 0 -508 25 -27 c14 -15 33 -31 43 -37 14 -7 423 -58 468 -58 3 0 21 -40 38 -89 18 -49 50 -126 72 -171 21 -45 36 -87 32 -93 -4 -7 -62 -80 -129 -162 -171 -211 -180 -230 -153 -302 13 -36 663 -688 705 -708 74 -35 94 -25 309 149 82 67 155 125 162 129 6 4 48 -11 93 -32 45 -22 122 -54 171 -72 49 -17 89 -37 89 -43 0 -6 11 -109 24 -229 26 -234 32 -253 89 -287 31 -19 54 -20 517 -20 463 0 486 1 517 20 57 34 62 51 89 296 14 126 26 229 27 230 1 1 47 19 102 39 55 21 130 53 167 71 37 19 69 34 72 34 2 0 78 -59 168 -132 89 -72 178 -140 196 -151 44 -26 100 -18 149 21 77 62 662 658 672 685 27 72 19 88 -152 300 -68 83 -126 157 -130 164 -4 6 11 48 32 93 22 45 54 122 72 171 17 49 37 89 43 89 6 0 109 11 229 24 234 26 253 32 287 89 19 31 20 54 20 517 0 463 -1 486 -20 517 -34 57 -52 62 -291 89 -123 13 -226 24 -230 24 -3 0 -21 40 -38 89 -18 49 -50 126 -72 171 -21 45 -36 87 -32 93 4 7 62 81 130 164 171 212 179 228 152 300 -10 27 -595 623 -672 685 -49 39 -105 47 -149 21 -18 -11 -107 -79 -196 -151 -90 -73 -165 -132 -167 -132 -2 0 -40 18 -85 40 -45 21 -122 53 -171 71 -49 17 -89 35 -89 38 0 4 -11 107 -24 230 -27 239 -32 257 -89 291 -31 19 -53 20 -517 19 -267 0 -494 -4 -506 -9z m731 -1115 c316 -51 578 -186 805 -415 205 -206 333 -447 397 -740 26 -121 26 -439 0 -560 -44 -205 -130 -403 -244 -563 -74 -104 -235 -266 -339 -340 -163 -115 -359 -200 -564 -244 -121 -26 -439 -26 -560 0 -586 125 -1024 562 -1146 1142 -29 135 -26 464 4 591 68 287 194 518 392 714 231 230 483 361 800 415 104 18 346 18 455 0z"></path>

	<circle id="hidegearPart" fill="white" r="1200" cx="2560" cy="0" />
</g>

<g transform="translate(0.000000,508.000000) scale(0.100000,-0.100000)" fill="white" stroke="url(#grad1)" stroke-width="80">
<path d="M2335 3855 c-279 -51 -498 -163 -698 -355 -249 -239 -389 -541 -413
-897 l-7 -103 140 0 140 0 12 67 c30 164 151 277 310 290 195 16 344 -110 376
-319 l6 -38 144 0 145 0 0 205 c0 194 1 206 21 226 18 18 28 20 98 13 94 -8
135 3 179 49 100 103 75 254 -52 319 -35 18 -51 20 -122 14 -129 -11 -124 -23
-124 289 l0 255 -42 -1 c-24 0 -74 -7 -113 -14z"/>
<path d="M2630 3678 l0 -195 58 -6 c163 -15 294 -150 309 -317 17 -179 -127
-351 -306 -367 l-61 -6 0 -143 0 -144 194 0 c107 0 206 -4 220 -10 40 -15 50
-44 36 -109 -23 -109 32 -206 133 -236 82 -24 149 -5 205 59 45 51 59 105 44
172 -13 64 -3 96 35 113 15 7 96 11 215 11 l191 0 -8 103 c-23 340 -143 618
-369 854 -136 143 -283 245 -458 317 -103 43 -262 83 -364 92 l-74 7 0 -195z"/>
<path d="M1805 2711 c-45 -11 -69 -26 -103 -65 -45 -51 -59 -105 -44 -172 13
-62 4 -97 -27 -113 -12 -7 -94 -11 -205 -11 -216 0 -199 13 -165 -128 62 -250
178 -450 380 -654 176 -178 219 -275 219 -495 l0 -113 315 0 315 0 -2 203 -3
202 -55 6 c-83 9 -152 44 -210 105 -72 76 -93 129 -94 234 -1 77 2 92 32 152
54 109 158 183 277 195 l55 6 0 143 0 144 -205 0 c-205 0 -206 0 -230 25 -28
27 -29 35 -14 102 23 99 -36 199 -134 228 -55 16 -58 16 -102 6z"/>
<path d="M2630 2142 c0 -255 4 -248 -118 -237 -62 5 -87 3 -118 -10 -131 -54
-167 -221 -68 -318 55 -56 106 -68 209 -53 43 7 53 5 73 -14 22 -21 22 -24 22
-285 l0 -265 315 0 315 0 0 113 c0 217 45 321 210 486 59 58 135 144 169 191
111 150 217 397 237 552 l7 48 -131 0 -130 0 -6 -54 c-36 -287 -384 -409 -587
-207 -55 56 -99 141 -99 194 0 12 -3 32 -6 45 -6 22 -9 22 -150 22 l-144 0 0
-208z"/>
<path d="M1860 769 c0 -92 46 -170 123 -212 42 -22 43 -22 577 -22 534 0 535
0 577 22 77 42 123 120 123 212 l0 41 -700 0 -700 0 0 -41z"/>
<path d="M2050 373 c0 -23 41 -116 69 -157 101 -145 245 -216 441 -216 163 0
284 46 384 147 54 54 111 152 122 208 l6 30 -511 0 c-394 0 -511 -3 -511 -12z"/>
</g>
</svg>
